<?xml version="1.0" encoding="UTF-8" standalone="no"?>
<!-- Created with Inkscape (http://www.inkscape.org/) -->

<svg
   version="1.1"
   id="svg1"
   width="192"
   height="192"
   viewBox="0 0 192 192"
   sodipodi:docname="Zzz.svg"
   inkscape:version="1.3 (0e150ed6c4, 2023-07-21)"
   xmlns:inkscape="http://www.inkscape.org/namespaces/inkscape"
   xmlns:sodipodi="http://sodipodi.sourceforge.net/DTD/sodipodi-0.dtd"
   xmlns="http://www.w3.org/2000/svg"
   xmlns:svg="http://www.w3.org/2000/svg">
  <defs
     id="defs1" />
  <sodipodi:namedview
     id="namedview1"
     pagecolor="#ffffff"
     bordercolor="#000000"
     borderopacity="0.25"
     inkscape:showpageshadow="2"
     inkscape:pageopacity="0.0"
     inkscape:pagecheckerboard="0"
     inkscape:deskcolor="#d1d1d1"
     inkscape:zoom="1.5026042"
     inkscape:cx="10.64818"
     inkscape:cy="134.10052"
     inkscape:window-width="1920"
     inkscape:window-height="1009"
     inkscape:window-x="-8"
     inkscape:window-y="-8"
     inkscape:window-maximized="1"
     inkscape:current-layer="g1" />
  <g
     inkscape:groupmode="layer"
     inkscape:label="Image"
     id="g1"
     transform="translate(103.63951,389.04678)">
    <g
       id="g2"
       transform="matrix(0.24205465,0,0,0.29113276,-98.520488,-396.26087)">
      <rect
         style="opacity:1;fill:#84dcff;fill-opacity:1;stroke:#2d241d;stroke-width:0;stroke-linecap:round;stroke-miterlimit:3.7;paint-order:stroke fill markers"
         id="rect1"
         width="408.18024"
         height="344.40207"
         x="137.12296"
         y="264.67938" />
      <path
         style="fill:#34adff;fill-opacity:1"
         d="m 386.94109,620.79817 c -29.425,-0.42971 -60.7,-1.07391 -69.5,-1.43153 -16.9717,-0.68972 -49.6937,-3.74772 -65.5,-6.12123 -5.225,-0.78461 -17.8309,-1.94287 -28.013,-2.57393 -16.7672,-1.03917 -21.0085,-0.9362 -44.97451,1.0918 -27.54941,2.33124 -33.93402,2.26081 -52.01009,-0.57373 C 108.96811,608.37081 83.307416,597.999 65.227936,586.24471 48.321306,575.25294 29.134206,553.09552 18.979526,532.83666 6.080535,507.10281 4.113885,487.24399 11.101225,453.28337 c 2.975651,-14.46255 12.415981,-48.43712 16.532951,-59.5 5.01626,-13.47943 15.99827,-36.06855 22.37448,-46.02253 12.04158,-18.79827 29.65068,-38.37427 47.43242,-52.73053 4.400004,-3.55239 12.646094,-10.5737 18.324654,-15.60291 23.22288,-20.56734 38.90664,-29.72142 76.41026,-44.5981 32.0441,-12.71102 39.8976,-15.13745 59.7651,-18.46527 16.8047,-2.81479 17.4666,-2.95906 46.3388,-10.09907 36.0975,-8.9268 43.2947,-9.9341 71.1612,-9.95962 24.6378,-0.0226 24.876,0.003 46,4.95445 5.5,1.28917 14.2834,2.82011 19.5186,3.40208 18.185,2.02154 39.1687,8.7396 73.7314,23.60554 15.1393,6.51165 19.2547,7.93124 19.2722,6.64784 0.028,-2.08399 2.8459,-5.57465 5.6621,-7.01484 1.2448,-0.63661 7.266,-1.11669 14,-1.11623 6.4986,4.4e-4 25.7657,-0.4915 42.8157,-1.09321 32.028,-1.13031 54.6637,-0.31467 62.8205,2.26361 8.8348,2.7926 11.5998,12.43312 5.5442,19.33014 -3.2202,3.6676 -14.5724,9.63894 -24.8647,13.07905 l -5.5,1.83832 5,0.65034 c 2.75,0.35769 8.5795,0.9855 12.9545,1.39512 7.2658,0.68031 8.2508,1.04116 11.3779,4.16823 3.102,3.10199 3.3703,3.81973 2.8574,7.64395 -0.8139,6.06804 -4.22,8.72364 -11.1888,8.72364 -9.9981,0 -57.6717,-5.49882 -66.1736,-7.63268 -2.2379,-0.56168 0.298,2.56201 12.3503,15.21293 18.9338,19.87429 25.6356,27.90147 39.5901,47.41975 6.0949,8.525 13.6527,18.89491 16.7952,23.04424 19.1063,25.228 26.8866,41.81119 37.2781,79.45576 8.2345,29.83068 9.84,38.58845 10.3576,56.5 0.4106,14.21061 0.2353,16.32383 -2.1068,25.40347 -5.691,22.06248 -16.6122,36.36703 -43.5018,56.97836 -20.3069,15.56562 -32.5938,21.46852 -58.519,28.1139 -25.0889,6.431 -32.0092,7.3129 -75.2993,9.59592 -49.5802,2.61474 -67.8564,2.87847 -133.2718,1.92315 z m 5.5,-14.11563 c 22.1369,-3.28303 51.1025,-13.25922 68.6772,-23.65346 18.0985,-10.70399 32.8165,-28.66317 38.7815,-47.32184 3.9739,-12.43026 4.2311,-33.3382 0.5833,-47.42387 -0.8546,-3.3 -3.5621,-10.09473 -6.0167,-15.0994 -3.5551,-7.24873 -5.8441,-10.40119 -11.2541,-15.5 -15.8934,-14.97898 -32.6534,-22.47088 -61.7712,-27.61234 -14.6741,-2.59107 -91.217,-2.60782 -102.5,-0.0224 -9.6321,2.20708 -16.7658,5.07272 -25.5,10.24335 -3.85,2.27919 -12.5508,7.4343 -19.335,11.45578 -16.1858,9.59444 -23.2056,14.97032 -29.2686,22.4143 -17.9338,22.01888 -19.6033,48.77439 -4.5505,72.92562 13.0212,20.89167 31.5924,34.81609 62.6541,46.97724 32.965,12.90631 60.9492,16.85131 89.5,12.61706 z m -104,-61.92393 c -18.1615,-1.54344 -30.9071,-5.1347 -34.5187,-9.72617 -3.0661,-3.89782 -2.6538,-9.73038 0.9418,-13.32599 3.1643,-3.16435 6.8518,-3.73761 11.7618,-1.82852 9.1265,3.54853 39.59,5.7732 55.6467,4.06374 10.5928,-1.12775 13.4667,-0.61913 17.4184,3.08263 2.7449,2.57128 3.067,9.14757 0.6193,12.6422 -3.1224,4.45783 -7.5612,5.45664 -25.3693,5.70855 -9.075,0.12837 -21,-0.14902 -26.5,-0.61644 z m 118.5,-0.45963 c -0.825,-0.21368 -3.7107,-0.68065 -6.4126,-1.03771 -6.6612,-0.8803 -10.5874,-4.71664 -10.5874,-10.34521 0,-7.48263 7.1532,-12.04761 15.75,-10.05124 2.0625,0.47896 6.0894,0.88157 8.9488,0.89469 8.5505,0.0392 27.9409,-2.86332 33.3368,-4.99019 7.1015,-2.79914 11.2664,-2.58676 14.9833,0.76405 6.591,5.94168 4.3104,14.08349 -5.1863,18.51499 -9.4383,4.40429 -17.2463,5.84833 -33.8326,6.25711 -8.525,0.21011 -16.175,0.20718 -17,-0.006 z m 166.4319,-276.93086 c -0.3503,-1.39589 0.1029,-3.90953 1.0739,-5.95579 2.1215,-4.47067 5.9894,-6.3305 23.2662,-11.18734 7.2996,-2.05205 13.1076,-3.89534 12.9067,-4.0962 -0.2008,-0.20087 -14.8334,-0.0632 -32.5168,0.30588 l -32.1517,0.67109 3.7449,2.51396 c 5.2931,3.55327 17.1992,13.37237 20.682,17.05662 3.5346,3.73916 3.7735,3.79434 2.9948,0.69178 z m 147.9833,-155.93485 c -5.0336,-2.30801 -7.6351,-6.41735 -7.2364,-11.43068 l 0.3423,-4.303305 -5.5106,0.743537 c -8.3019,1.120179 -11.0579,0.669303 -14.1774,-2.319391 -2.2175,-2.124439 -2.8262,-3.597128 -2.8013,-6.777159 0.057,-7.266692 3.9425,-9.974778 16.4682,-11.47752 13.8274,-1.658914 29.0199,-1.407047 33.1429,0.549456 4.0182,1.906741 6.3571,5.850026 6.3571,10.71767 0,2.901708 0.4575,3.611314 2.8705,4.452508 9.3281,3.251782 9.7223,15.737904 0.6063,19.203804 -1.2822,0.48747 -7.8765,1.14938 -14.654,1.47092 -9.4949,0.45045 -13.0307,0.26001 -15.4076,-0.82984 z"
         id="path1" />
    </g>
  </g>
</svg>
