<?xml version="1.0" standalone="no"?>
<!DOCTYPE svg PUBLIC "-//W3C//DTD SVG 20010904//EN"
 "http://www.w3.org/TR/2001/REC-SVG-20010904/DTD/svg10.dtd">
<svg version="1.0" xmlns="http://www.w3.org/2000/svg"
 width="5940.000000pt" height="1476.000000pt" viewBox="0 0 5940.000000 1476.000000"
 preserveAspectRatio="xMidYMid meet">

<g transform="translate(0.000000,1476.000000) scale(0.100000,-0.100000)"
fill="#000000" stroke="none">
<path d="M1498 13622 c-24 -11 -28 -19 -28 -53 0 -22 -5 -50 -11 -62 -16 -30
-16 -121 0 -141 17 -21 80 -21 110 0 25 18 24 45 -4 134 -8 25 -21 65 -28 90
-12 45 -12 45 -39 32z"/>
<path d="M6830 13620 c-14 -11 -31 -20 -37 -20 -14 0 -19 -150 -5 -150 4 0 20
-11 36 -25 45 -39 76 -34 109 17 24 39 21 58 -18 103 -19 22 -35 45 -35 50 0
6 -6 19 -12 28 -12 15 -15 15 -38 -3z"/>
<path d="M31198 13622 c-24 -11 -28 -19 -28 -53 0 -22 -5 -50 -11 -62 -16 -30
-16 -121 0 -141 17 -21 80 -21 110 0 25 18 24 45 -4 134 -8 25 -21 65 -28 90
-12 45 -12 45 -39 32z"/>
<path d="M12168 13596 c-37 -21 -38 -22 -38 -83 l0 -61 64 -4 c35 -1 71 -2 80
0 24 5 46 55 46 102 0 37 -3 41 -30 47 -17 3 -33 10 -36 14 -9 15 -47 8 -86
-15z"/>
<path d="M9493 13588 c-31 -13 -43 -25 -45 -41 -7 -112 -9 -104 24 -111 17 -3
52 -6 78 -6 44 0 49 2 64 34 22 47 21 105 -1 112 -10 3 -29 11 -43 17 -14 6
-27 12 -30 13 -3 0 -24 -7 -47 -18z"/>
<path d="M4173 13537 l-51 -10 -4 -51 c-3 -46 0 -52 37 -91 50 -53 76 -62 114
-39 29 17 57 64 50 81 -15 35 -76 123 -84 121 -5 0 -33 -6 -62 -11z"/>
<path d="M28508 13515 c-10 -19 -13 -37 -8 -40 10 -6 150 27 150 37 0 21 -36
38 -78 38 -43 0 -48 -3 -64 -35z"/>
<path d="M23244 13504 c4 -15 16 -41 28 -56 11 -16 18 -37 15 -47 -3 -15 4
-20 39 -28 39 -9 44 -8 50 9 10 33 -27 86 -85 119 l-54 31 7 -28z"/>
<path d="M25943 13509 c4 -13 7 -27 7 -31 0 -5 6 -8 14 -8 16 0 31 -34 22 -49
-3 -5 8 -11 25 -15 46 -9 56 -8 62 8 8 20 -28 57 -87 91 l-49 28 6 -24z"/>
<path d="M20530 13500 c0 -11 23 -63 31 -70 9 -8 22 -44 20 -57 -1 -8 10 -13
28 -13 16 0 36 -3 45 -6 21 -8 21 23 1 62 -14 28 -125 102 -125 84z"/>
<path d="M17830 13494 c0 -6 25 -59 30 -64 3 -3 18 -22 33 -42 34 -46 57 -50
57 -9 0 37 -30 74 -80 99 -22 11 -40 18 -40 16z"/>
<path d="M23118 13465 c-5 -23 5 -38 46 -72 8 -7 30 -13 48 -13 l33 0 -22 23
c-12 12 -35 37 -51 55 -36 38 -48 40 -54 7z"/>
<path d="M25817 13478 c-10 -29 51 -78 96 -78 l29 0 -29 34 c-15 19 -35 36
-43 39 -8 2 -22 8 -31 11 -10 4 -19 2 -22 -6z"/>
<path d="M17701 13448 c-10 -29 -9 -34 20 -64 29 -30 90 -51 110 -38 5 3 -5
19 -21 36 -17 17 -30 34 -30 38 0 4 -15 19 -34 34 l-34 26 -11 -32z"/>
<path d="M20411 13444 c-9 -20 -7 -28 7 -42 34 -34 67 -52 94 -52 l28 0 -30
31 c-16 17 -32 39 -35 49 -3 9 -16 22 -29 28 -20 9 -25 7 -35 -14z"/>
<path d="M28660 13461 c-8 -5 -43 -14 -77 -21 l-62 -14 14 -26 c8 -15 21 -32
30 -40 21 -17 81 -15 112 5 20 14 23 21 18 48 -10 46 -18 57 -35 48z"/>
<path d="M31010 12051 c-14 -14 -31 -37 -38 -51 -7 -14 -38 -52 -68 -85 -83
-91 -83 -117 4 -155 58 -26 88 -25 112 3 11 12 33 36 48 53 28 31 28 32 11 56
-10 13 -28 51 -40 83 -18 49 -20 64 -11 89 7 16 11 31 9 32 -1 1 -13 -10 -27
-25z"/>
<path d="M28287 11998 c-10 -11 -23 -34 -29 -51 -10 -28 -25 -51 -68 -104 -32
-39 9 -93 71 -93 34 0 89 34 89 54 0 7 11 26 25 42 28 32 31 44 12 44 -7 0
-26 27 -41 60 -16 34 -32 62 -35 64 -3 1 -14 -6 -24 -16z"/>
<path d="M14994 11992 c-6 -4 -15 -27 -19 -52 -5 -33 -16 -52 -39 -71 l-31
-27 50 -7 c28 -4 72 -16 98 -26 76 -30 100 -26 136 23 17 23 31 47 31 53 0 16
-38 49 -80 70 -19 10 -37 21 -40 25 -8 11 -93 21 -106 12z"/>
<path d="M12270 11973 c0 -10 -9 -33 -20 -50 l-19 -33 24 -24 c23 -23 124 -56
172 -56 20 0 73 51 73 71 0 5 -15 9 -34 9 -44 0 -56 18 -26 42 13 11 17 18 9
18 -8 0 -25 9 -39 20 -35 27 -140 29 -140 3z"/>
<path d="M17594 11949 c-45 -52 -108 -109 -121 -109 -44 0 -13 -58 55 -100 57
-36 112 -39 149 -10 14 11 31 20 38 20 7 0 16 7 19 16 6 17 -1 34 -40 91 -13
20 -24 43 -24 52 -1 9 -11 29 -24 45 l-24 28 -28 -33z"/>
<path d="M25536 11953 c-15 -16 -36 -76 -36 -107 -1 -17 -7 -42 -15 -56 -26
-45 -19 -75 23 -104 21 -14 49 -26 63 -26 34 0 75 46 83 92 l7 37 -47 3 c-57
4 -78 26 -51 56 16 17 16 22 2 48 -8 16 -12 37 -9 47 5 17 -6 23 -20 10z"/>
<path d="M1141 11933 c-1 -7 -21 -24 -45 -38 -35 -21 -47 -35 -59 -73 -16 -46
-16 -47 8 -71 23 -23 25 -23 72 -11 59 17 103 40 117 63 9 13 2 25 -35 64 -26
27 -49 55 -52 63 -3 8 -6 10 -6 3z"/>
<path d="M3852 11915 c-16 -36 -15 -137 2 -160 8 -12 12 -33 8 -57 -4 -33 0
-41 28 -68 27 -25 40 -30 80 -30 61 0 84 19 74 64 -8 40 -12 46 -29 46 -20 0
-82 36 -108 63 -34 33 -50 82 -44 127 6 47 4 49 -11 15z"/>
<path d="M20294 11882 c-29 -3 -32 -7 -37 -44 -3 -23 -1 -50 4 -59 5 -10 9
-30 9 -46 0 -33 16 -45 86 -63 47 -12 54 -12 80 7 16 11 36 22 46 26 20 7 32
55 20 86 -8 23 -66 51 -104 51 -10 0 -22 8 -27 19 -12 21 -33 27 -77 23z"/>
<path d="M6741 11863 c18 -23 43 -43 88 -69 23 -13 38 -31 43 -53 13 -47 34
-50 76 -7 l37 36 -30 25 c-17 13 -49 34 -72 46 -24 11 -43 25 -43 30 0 5 -25
9 -56 9 -52 0 -55 -1 -43 -17z"/>
<path d="M9603 11873 c-35 -5 -40 -12 -21 -31 18 -18 -8 -38 -62 -50 -36 -7
-41 -11 -25 -16 11 -5 30 -13 43 -19 13 -6 48 -11 78 -11 47 -1 59 3 75 23 26
32 25 76 -3 95 -12 9 -29 15 -38 14 -8 0 -30 -3 -47 -5z"/>
<path d="M23019 11835 c22 -24 41 -52 41 -60 0 -25 29 -75 43 -75 7 0 28 16
47 35 l35 36 -30 24 c-17 14 -49 34 -72 46 -24 11 -43 25 -43 30 0 5 -14 9
-31 9 l-32 0 42 -45z"/>
<path d="M14939 10473 c-28 -7 -52 -118 -43 -204 9 -90 31 -119 92 -119 59 0
68 29 51 159 -11 87 -17 104 -44 135 -17 20 -33 35 -35 35 -3 -1 -12 -3 -21
-6z"/>
<path d="M17635 10473 c-11 -3 -24 -9 -29 -13 -18 -18 -25 -106 -14 -183 9
-65 15 -81 34 -94 26 -17 63 -12 102 13 39 25 28 152 -15 178 -11 6 -13 18 -9
41 11 59 -6 73 -69 58z"/>
<path d="M20335 10473 c-11 -3 -24 -9 -29 -13 -18 -18 -25 -106 -14 -183 9
-65 15 -81 34 -94 26 -17 63 -12 102 13 39 25 28 152 -15 178 -11 6 -13 18 -9
41 11 59 -6 73 -69 58z"/>
<path d="M23035 10473 c-11 -3 -24 -9 -29 -13 -18 -18 -25 -106 -14 -183 9
-65 15 -81 34 -94 26 -17 63 -12 102 13 39 25 28 152 -15 178 -11 6 -13 18 -9
41 11 59 -6 73 -69 58z"/>
<path d="M25735 10473 c-11 -3 -24 -9 -29 -13 -18 -18 -25 -106 -14 -183 9
-65 15 -81 34 -94 26 -17 63 -12 102 13 39 25 28 152 -15 178 -11 6 -13 18 -9
41 11 59 -6 73 -69 58z"/>
<path d="M28435 10473 c-11 -3 -24 -9 -29 -13 -18 -18 -25 -106 -14 -183 9
-65 15 -81 34 -94 26 -17 63 -12 102 13 39 25 28 152 -15 178 -11 6 -13 18 -9
41 11 59 -6 73 -69 58z"/>
<path d="M31157 10473 c-2 -5 -7 -21 -11 -36 -4 -15 -21 -40 -38 -56 l-31 -27
37 -55 c20 -29 36 -61 36 -70 0 -50 130 -29 143 23 3 10 -10 49 -29 86 -18 37
-34 71 -34 75 0 4 -10 21 -22 37 -21 29 -42 38 -51 23z"/>
<path d="M33857 10473 c-2 -5 -7 -21 -11 -36 -4 -15 -21 -40 -38 -56 l-31 -27
37 -55 c20 -29 36 -61 36 -70 0 -50 130 -29 143 23 3 10 -10 49 -29 86 -18 37
-34 71 -34 75 0 4 -10 21 -22 37 -21 29 -42 38 -51 23z"/>
<path d="M36557 10473 c-2 -5 -7 -21 -11 -36 -4 -15 -21 -40 -38 -56 l-31 -27
37 -55 c20 -29 36 -61 36 -70 0 -50 130 -29 143 23 3 10 -10 49 -29 86 -18 37
-34 71 -34 75 0 4 -10 21 -22 37 -21 29 -42 38 -51 23z"/>
<path d="M39257 10473 c-2 -5 -7 -21 -11 -36 -4 -15 -21 -40 -38 -56 l-31 -27
37 -55 c20 -29 36 -61 36 -70 0 -50 130 -29 143 23 3 10 -10 49 -29 86 -18 37
-34 71 -34 75 0 4 -10 21 -22 37 -21 29 -42 38 -51 23z"/>
<path d="M41957 10473 c-2 -5 -7 -21 -11 -36 -4 -15 -21 -40 -38 -56 l-31 -27
37 -55 c20 -29 36 -61 36 -70 0 -50 130 -29 143 23 3 10 -10 49 -29 86 -18 37
-34 71 -34 75 0 4 -10 21 -22 37 -21 29 -42 38 -51 23z"/>
<path d="M1430 10398 c0 -7 -11 -26 -25 -42 -14 -17 -28 -41 -30 -55 -3 -14
-12 -55 -20 -91 -19 -83 -20 -77 16 -96 27 -14 38 -14 77 -3 36 10 47 19 58
46 9 20 11 40 6 50 -5 10 -21 41 -35 69 -17 32 -27 68 -27 93 0 23 -4 41 -10
41 -5 0 -10 -6 -10 -12z"/>
<path d="M55430 10398 c0 -7 -11 -26 -25 -42 -14 -17 -28 -41 -30 -55 -3 -14
-12 -55 -20 -91 -19 -83 -20 -77 16 -96 27 -14 38 -14 77 -3 36 10 47 19 58
46 9 20 11 40 6 50 -5 10 -21 41 -35 69 -17 32 -27 68 -27 93 0 23 -4 41 -10
41 -5 0 -10 -6 -10 -12z"/>
<path d="M58130 10398 c0 -7 -11 -26 -25 -42 -14 -17 -28 -41 -30 -55 -3 -14
-12 -55 -20 -91 -19 -83 -20 -77 16 -96 27 -14 38 -14 77 -3 36 10 47 19 58
46 9 20 11 40 6 50 -5 10 -21 41 -35 69 -17 32 -27 68 -27 93 0 23 -4 41 -10
41 -5 0 -10 -6 -10 -12z"/>
<path d="M52706 10357 c-15 -17 -29 -43 -31 -57 -3 -14 -12 -54 -20 -90 -8
-36 -15 -68 -15 -72 0 -15 63 -39 85 -34 l23 6 -19 61 c-25 79 -25 109 0 109
14 0 20 -9 24 -32 3 -18 12 -55 20 -83 l15 -50 16 37 c10 24 13 44 8 55 -5 10
-21 41 -35 69 -15 29 -27 63 -27 77 0 39 -15 40 -44 4z"/>
<path d="M4191 10299 c-13 -5 -31 -7 -40 -4 -13 4 -22 -7 -37 -43 -19 -43 -19
-51 -6 -68 8 -10 25 -42 38 -71 25 -56 46 -73 92 -73 51 0 75 29 76 89 1 37
-4 56 -15 64 -9 7 -23 26 -32 42 -32 59 -50 74 -76 64z"/>
<path d="M12256 10226 c-4 -39 -2 -73 9 -109 22 -76 25 -79 81 -75 l49 3 3 51
c4 64 -11 104 -38 104 -28 0 -68 28 -84 58 -12 23 -13 22 -20 -32z"/>
<path d="M6809 10090 c50 -80 115 -130 168 -130 76 0 84 47 21 111 l-43 43
-81 1 -81 1 16 -26z"/>
<path d="M9536 10053 c19 -23 34 -48 34 -55 0 -18 33 -35 83 -43 60 -10 77 0
77 43 0 32 -6 41 -42 66 -36 26 -50 30 -114 30 l-72 1 34 -42z"/>
<path d="M44780 10067 c0 -12 -7 -32 -15 -44 -15 -22 -92 -53 -130 -53 -15 0
-25 -10 -35 -37 -8 -21 -16 -41 -18 -45 -7 -15 63 -8 108 10 77 30 109 51 125
82 27 52 15 110 -22 110 -7 0 -13 -10 -13 -23z"/>
<path d="M47475 10024 c-24 -26 -98 -54 -142 -54 -16 0 -23 -6 -23 -19 0 -11
6 -22 13 -24 7 -3 5 -6 -5 -6 -10 -1 -22 -10 -28 -21 -10 -19 -8 -20 33 -20
24 0 47 3 51 7 4 4 32 17 63 28 43 17 61 29 75 56 10 18 18 41 18 50 0 29 -30
31 -55 3z"/>
<path d="M50010 10029 c0 -21 45 -59 70 -59 27 0 90 42 90 60 0 4 -36 7 -80 6
-44 0 -80 -4 -80 -7z"/>
<path d="M1432 8753 c-7 -16 -20 -41 -29 -58 -9 -16 -23 -55 -31 -85 -26 -103
-26 -103 6 -122 37 -22 62 -23 106 -1 51 24 55 57 17 139 -17 37 -31 76 -31
88 0 29 -11 66 -19 66 -4 0 -12 -12 -19 -27z"/>
<path d="M4140 8760 c0 -11 -8 -28 -17 -38 -19 -19 -31 -50 -59 -151 l-17 -64
22 -19 c48 -38 144 -11 156 44 5 19 -2 46 -23 90 -17 35 -33 84 -37 111 -6 46
-25 67 -25 27z"/>
<path d="M14932 8753 c-7 -16 -20 -41 -29 -58 -9 -16 -23 -55 -31 -85 -26
-103 -26 -103 6 -122 37 -22 62 -23 106 -1 51 24 55 57 17 139 -17 37 -31 76
-31 88 0 29 -11 66 -19 66 -4 0 -12 -12 -19 -27z"/>
<path d="M12240 8755 c0 -8 -8 -23 -17 -33 -19 -19 -31 -50 -59 -151 l-18 -64
30 -23 c35 -29 47 -29 100 -5 54 25 63 58 34 124 -11 25 -25 49 -30 52 -6 3
-10 21 -10 38 0 42 -10 77 -21 77 -5 0 -9 -7 -9 -15z"/>
<path d="M6840 8745 c0 -8 -8 -22 -18 -32 -17 -17 -54 -120 -68 -188 -5 -26
-1 -33 24 -47 39 -23 69 -23 109 2 48 29 52 61 14 132 -17 33 -31 69 -31 81 0
33 -11 67 -21 67 -5 0 -9 -7 -9 -15z"/>
<path d="M9540 8745 c0 -8 -8 -22 -18 -32 -17 -17 -54 -119 -68 -189 -5 -25
-1 -33 20 -47 41 -27 93 -22 127 12 16 16 29 36 29 44 0 14 -30 85 -50 117 -5
8 -12 36 -15 63 -3 26 -10 47 -16 47 -5 0 -9 -7 -9 -15z"/>
<path d="M23065 7695 c-25 -24 -25 -24 -25 -240 l0 -215 240 0 240 0 0 215 c0
286 19 265 -240 265 -189 0 -191 0 -215 -25z m408 -27 c24 -23 24 -143 1 -152
-9 -3 -96 -6 -194 -6 -98 0 -185 3 -194 6 -21 8 -23 129 -3 149 21 21 43 23
213 21 136 -1 163 -4 177 -18z m-223 -300 c0 -40 -4 -79 -9 -86 -9 -14 -143
-13 -158 1 -4 4 -9 41 -11 82 l-4 75 91 0 91 0 0 -72z m238 -3 c-2 -41 -7 -78
-11 -82 -15 -14 -149 -15 -158 -1 -5 7 -9 46 -9 86 l0 72 91 0 91 0 -4 -75z"/>
<path d="M23865 7695 l-25 -24 0 -671 0 -671 25 -24 24 -25 671 0 671 0 24 25
25 24 0 671 0 671 -25 24 -24 25 -671 0 -671 0 -24 -25z m413 -19 c11 -17 9
-150 -3 -158 -12 -9 -367 -11 -389 -2 -12 5 -16 21 -16 71 0 66 9 86 46 96 38
10 355 4 362 -7z m478 3 c21 -17 19 -155 -2 -163 -22 -9 -377 -7 -389 2 -11 8
-14 141 -3 158 10 15 376 18 394 3z m478 -12 c23 -22 22 -142 0 -151 -22 -9
-377 -7 -389 2 -12 8 -14 141 -3 158 5 8 65 10 192 9 152 -2 188 -5 200 -18z
m-1184 -299 c0 -40 -4 -79 -9 -86 -10 -16 -149 -14 -159 2 -3 6 -8 43 -10 83
l-4 73 91 0 91 0 0 -72z m480 3 c0 -109 17 -101 -210 -101 -227 0 -210 -8
-210 101 l0 69 210 0 210 0 0 -69z m490 0 c0 -109 17 -101 -215 -101 -232 0
-215 -8 -215 101 l0 69 215 0 215 0 0 -69z m228 -4 c-2 -40 -7 -77 -10 -83
-10 -15 -140 -18 -150 -2 -4 7 -8 46 -8 86 l0 72 86 0 86 0 -4 -73z m-972
-168 c21 -17 19 -155 -2 -163 -24 -9 -377 -7 -392 3 -10 6 -13 27 -10 77 2 38
7 74 10 80 10 15 377 18 394 3z m167 -1 c41 -1 41 -1 7 -5 -55 -7 -70 -27 -70
-95 0 -70 -15 -77 -23 -10 -9 85 2 128 30 118 8 -3 33 -7 56 -8z m315 0 c20
-20 14 -28 -14 -18 -14 6 -53 11 -87 11 -53 1 -57 3 -27 9 56 12 115 11 128
-2z m478 1 c21 -17 19 -155 -2 -163 -24 -9 -377 -7 -392 3 -10 6 -13 27 -10
77 2 38 7 74 10 80 10 15 377 18 394 3z m-1186 -311 c0 -40 -4 -79 -9 -86 -9
-14 -143 -13 -158 1 -4 4 -9 41 -11 82 l-4 75 91 0 91 0 0 -72z m238 -3 c-2
-41 -7 -78 -11 -82 -15 -14 -149 -15 -158 -1 -5 7 -9 46 -9 86 l0 72 91 0 91
0 -4 -75z m722 3 c0 -40 -4 -79 -9 -86 -9 -14 -143 -13 -158 1 -4 4 -9 41 -11
82 l-4 75 91 0 91 0 0 -72z m238 -3 c-2 -41 -7 -78 -11 -82 -15 -14 -149 -15
-158 -1 -5 7 -9 46 -9 86 l0 72 91 0 91 0 -4 -75z m-861 -57 c9 -11 30 -18 50
-18 18 0 33 -3 33 -7 0 -10 -97 -10 -106 0 -11 11 -15 79 -7 117 7 33 8 32 11
-20 2 -32 10 -62 19 -72z m369 -17 c-8 -13 -36 -15 -36 -3 0 4 5 13 12 20 14
14 34 0 24 -17z m-56 -11 c0 -5 -16 -10 -35 -10 -19 0 -35 5 -35 10 0 6 16 10
35 10 19 0 35 -4 35 -10z m-422 -85 c11 -16 8 -149 -3 -157 -14 -11 -377 -10
-393 1 -10 6 -13 27 -10 77 2 38 7 75 11 81 10 16 385 14 395 -2z m478 4 c21
-17 19 -155 -2 -163 -22 -9 -377 -7 -389 2 -11 8 -14 141 -3 158 10 15 376 18
394 3z m480 -2 c4 -4 10 -39 12 -79 3 -52 0 -73 -10 -79 -16 -11 -379 -12
-393 -1 -11 8 -14 141 -3 158 8 12 382 14 394 1z m-1186 -309 c0 -98 -4 -102
-84 -96 -85 7 -96 19 -96 102 l0 66 90 0 90 0 0 -72z m480 3 c0 -109 17 -101
-210 -101 -227 0 -210 -8 -210 101 l0 69 210 0 210 0 0 -69z m480 0 c0 -109
17 -101 -210 -101 -227 0 -210 -8 -210 101 l0 69 210 0 210 0 0 -69z m240 3
c0 -83 -11 -95 -96 -102 -80 -6 -84 -2 -84 96 l0 72 90 0 90 0 0 -66z"/>
<path d="M21145 7055 c-25 -24 -25 -26 -25 -215 0 -259 -21 -240 265 -240 180
0 215 2 215 14 0 12 -36 15 -208 18 -247 4 -242 1 -242 102 l0 66 225 0 225 0
0 140 0 140 -215 0 c-216 0 -216 0 -240 -25z m172 -19 c12 -11 10 -150 -2
-158 -12 -9 -127 -10 -149 -2 -12 5 -16 21 -16 71 0 67 10 87 46 96 28 7 112
2 121 -7z m240 0 c12 -11 10 -150 -2 -158 -12 -9 -127 -10 -149 -2 -13 5 -16
22 -16 78 0 44 5 77 12 84 14 14 141 12 155 -2z"/>
<path d="M21760 6940 l0 -140 105 0 105 0 0 -69 c0 -104 4 -101 -111 -101 -81
0 -99 -3 -99 -15 0 -13 33 -15 240 -15 207 0 240 2 240 15 0 12 -18 15 -99 15
-115 0 -111 -3 -111 101 l0 69 105 0 105 0 0 140 0 140 -240 0 -240 0 0 -140z
m436 99 c21 -17 19 -155 -2 -163 -22 -9 -377 -7 -389 2 -11 8 -14 141 -3 158
10 15 376 18 394 3z"/>
<path d="M22400 6940 l0 -140 225 0 225 0 0 -66 c0 -101 5 -98 -242 -102 -172
-3 -208 -6 -208 -18 0 -12 35 -14 215 -14 286 0 265 -19 265 240 0 259 21 240
-265 240 l-215 0 0 -140z m196 99 c21 -17 19 -155 -2 -163 -22 -8 -137 -7
-149 2 -11 8 -14 141 -3 157 9 15 137 18 154 4z m238 -12 c23 -22 23 -142 0
-151 -22 -8 -137 -7 -149 2 -12 8 -14 141 -3 158 12 18 133 10 152 -9z"/>
<path d="M23040 6840 l0 -240 240 0 240 0 0 240 0 240 -240 0 -240 0 0 -240z
m436 199 c21 -17 19 -155 -2 -163 -24 -9 -377 -7 -392 3 -10 6 -13 27 -10 77
2 38 7 74 10 80 10 15 377 18 394 3z m-226 -311 c0 -40 -4 -79 -9 -86 -9 -14
-143 -13 -158 1 -4 4 -9 41 -11 82 l-4 75 91 0 91 0 0 -72z m238 -3 c-2 -41
-7 -78 -11 -82 -15 -14 -149 -15 -158 -1 -5 7 -9 46 -9 86 l0 72 91 0 91 0 -4
-75z"/>
<path d="M15865 6735 c-25 -24 -25 -26 -25 -215 0 -189 0 -191 25 -215 l24
-25 671 0 671 0 24 25 c25 24 25 26 25 215 0 189 0 191 -25 215 l-24 25 -671
0 -671 0 -24 -25z m172 -19 c12 -11 10 -150 -2 -158 -12 -9 -127 -10 -149 -2
-12 5 -16 21 -16 71 0 67 10 87 46 96 28 7 112 2 121 -7z m240 0 c12 -11 10
-150 -2 -158 -12 -9 -127 -10 -149 -2 -13 5 -16 22 -16 78 0 44 5 77 12 84 14
14 141 12 155 -2z m479 3 c21 -17 19 -155 -2 -163 -22 -9 -377 -7 -389 2 -11
8 -14 141 -3 158 10 15 376 18 394 3z m240 0 c21 -17 19 -155 -2 -163 -22 -8
-137 -7 -149 2 -11 8 -14 141 -3 157 9 15 137 18 154 4z m238 -12 c23 -22 23
-142 0 -151 -22 -8 -137 -7 -149 2 -12 8 -14 141 -3 158 12 18 133 10 152 -9z
m-704 -299 c0 -40 -4 -79 -9 -86 -6 -10 -70 -12 -313 -10 -356 4 -338 -2 -338
102 l0 66 330 0 330 0 0 -72z m720 6 c0 -104 18 -98 -338 -102 -243 -2 -307 0
-313 10 -5 7 -9 46 -9 86 l0 72 330 0 330 0 0 -66z"/>
<path d="M17785 6735 c-25 -24 -25 -26 -25 -215 0 -189 0 -191 25 -215 l24
-25 671 0 671 0 24 25 c25 24 25 26 25 215 0 189 0 191 -25 215 l-24 25 -671
0 -671 0 -24 -25z m172 -19 c12 -11 10 -150 -2 -158 -12 -9 -127 -10 -149 -2
-12 5 -16 21 -16 71 0 67 10 87 46 96 28 7 112 2 121 -7z m240 0 c12 -11 10
-150 -2 -158 -12 -9 -127 -10 -149 -2 -13 5 -16 22 -16 78 0 44 5 77 12 84 14
14 141 12 155 -2z m479 3 c21 -17 19 -155 -2 -163 -22 -9 -377 -7 -389 2 -11
8 -14 141 -3 158 10 15 376 18 394 3z m240 0 c21 -17 19 -155 -2 -163 -22 -8
-137 -7 -149 2 -11 8 -14 141 -3 157 9 15 137 18 154 4z m238 -12 c23 -22 23
-142 0 -151 -22 -8 -137 -7 -149 2 -12 8 -14 141 -3 158 12 18 133 10 152 -9z
m-704 -299 c0 -40 -4 -79 -9 -86 -6 -10 -70 -12 -313 -10 -356 4 -338 -2 -338
102 l0 66 330 0 330 0 0 -72z m720 6 c0 -104 18 -98 -338 -102 -243 -2 -307 0
-313 10 -5 7 -9 46 -9 86 l0 72 330 0 330 0 0 -66z"/>
<path d="M21785 6415 c-25 -24 -25 -26 -25 -215 0 -257 -17 -240 240 -240 257
0 240 -17 240 240 0 257 17 240 -240 240 -189 0 -191 0 -215 -25z m172 -19
c12 -11 10 -150 -2 -158 -12 -9 -127 -10 -149 -2 -12 5 -16 21 -16 71 0 67 10
87 46 96 28 7 112 2 121 -7z m237 -9 c23 -22 23 -142 0 -151 -22 -8 -137 -7
-149 2 -12 8 -14 141 -3 158 12 18 133 10 152 -9z m16 -293 c0 -100 1 -99
-210 -99 -211 0 -210 -1 -210 99 l0 66 210 0 210 0 0 -66z"/>
<path d="M22365 6415 c-25 -24 -25 -26 -25 -215 0 -257 -17 -240 240 -240 257
0 240 -17 240 240 0 257 17 240 -240 240 -189 0 -191 0 -215 -25z m408 -27
c24 -23 24 -143 1 -152 -9 -3 -96 -6 -194 -6 -98 0 -185 3 -194 6 -21 8 -23
129 -3 149 21 21 43 23 213 21 136 -1 163 -4 177 -18z m-223 -300 c0 -98 -4
-102 -84 -96 -85 7 -96 19 -96 102 l0 66 90 0 90 0 0 -72z m240 6 c0 -83 -11
-95 -96 -102 -80 -6 -84 -2 -84 96 l0 72 90 0 90 0 0 -66z"/>
<path d="M23040 6225 c0 -286 -19 -265 240 -265 259 0 240 -21 240 265 l0 215
-240 0 -240 0 0 -215z m436 174 c21 -17 19 -155 -2 -163 -23 -9 -377 -7 -391
2 -13 8 -13 137 -1 158 10 15 376 18 394 3z m-226 -311 c0 -98 -4 -102 -84
-96 -85 7 -96 19 -96 102 l0 66 90 0 90 0 0 -72z m240 6 c0 -83 -11 -95 -96
-102 -80 -6 -84 -2 -84 96 l0 72 90 0 90 0 0 -66z"/>
<path d="M14840 6130 l0 -140 105 0 105 0 0 -69 c0 -104 4 -101 -111 -101 -81
0 -99 -3 -99 -15 0 -13 33 -15 240 -15 207 0 240 2 240 15 0 12 -18 15 -99 15
-115 0 -111 -3 -111 101 l0 69 105 0 105 0 0 140 0 140 -240 0 -240 0 0 -140z
m436 99 c21 -17 19 -155 -2 -163 -22 -9 -377 -7 -389 2 -11 8 -14 141 -3 158
10 15 376 18 394 3z"/>
<path d="M15520 5820 l0 -140 105 0 105 0 0 -66 c0 -89 -9 -97 -121 -102 -67
-3 -89 -8 -89 -18 0 -11 21 -14 95 -14 88 0 98 2 120 25 25 24 25 26 25 215 0
189 0 191 -25 215 -22 23 -32 25 -120 25 l-95 0 0 -140z m194 87 c23 -22 23
-142 0 -151 -22 -8 -137 -7 -149 2 -12 8 -14 141 -3 158 12 18 133 10 152 -9z"/>
<path d="M15680 5290 c0 -30 0 -30 26 -14 24 16 25 16 31 -4 6 -25 33 -30 33
-7 0 24 47 -3 55 -32 8 -33 0 -40 -15 -14 -15 28 -30 26 -30 -4 0 -25 -25 -36
-32 -13 -3 8 -12 8 -36 -3 l-32 -14 0 -92 0 -93 320 0 320 0 0 105 c0 107 -6
121 -36 90 -25 -25 -43 -17 -50 20 -3 19 -12 35 -19 35 -7 0 -15 8 -18 19 -4
16 1 18 46 14 28 -2 56 -8 64 -14 10 -9 13 -5 13 20 l0 31 -320 0 -320 0 0
-30z m306 -21 c9 -7 20 -5 39 7 25 16 26 16 32 -4 6 -25 33 -30 33 -7 0 24 47
-3 55 -32 8 -33 0 -40 -15 -14 -15 28 -30 26 -30 -4 0 -26 -25 -35 -33 -12 -3
9 -10 9 -32 -3 -22 -12 -29 -12 -32 -2 -6 16 -21 15 -39 -3 -25 -25 -43 -17
-50 20 -3 19 -12 35 -19 35 -7 0 -15 8 -18 19 -4 16 1 18 46 14 28 -2 56 -8
63 -14z m-58 -168 c2 -6 8 -8 14 -5 5 3 18 -3 29 -15 18 -19 18 -22 4 -27 -9
-4 -24 1 -34 10 -20 19 -51 12 -51 -11 0 -13 -3 -13 -15 -3 -9 7 -22 9 -32 5
-10 -5 -27 -7 -39 -6 -11 1 -32 -7 -46 -18 -24 -19 -38 -19 -38 1 0 4 6 8 14
8 7 0 16 9 19 21 3 12 10 18 16 14 6 -3 18 1 27 9 9 9 20 14 25 10 5 -3 12 1
15 9 7 18 86 16 92 -2z m320 0 c2 -6 8 -8 14 -5 5 3 18 -3 29 -15 18 -19 18
-22 4 -27 -9 -4 -24 1 -34 10 -20 19 -51 12 -51 -11 0 -13 -3 -13 -15 -3 -9 7
-22 9 -32 5 -10 -5 -27 -7 -39 -6 -11 1 -32 -7 -46 -18 -24 -19 -38 -19 -38 1
0 4 6 8 14 8 7 0 16 9 19 21 3 12 10 18 16 14 6 -3 18 1 27 9 9 9 20 14 25 10
5 -3 12 1 15 9 7 18 86 16 92 -2z m-508 -12 c0 -6 -4 -7 -10 -4 -5 3 -10 11
-10 16 0 6 5 7 10 4 6 -3 10 -11 10 -16z m320 0 c0 -6 -4 -7 -10 -4 -5 3 -10
11 -10 16 0 6 5 7 10 4 6 -3 10 -11 10 -16z"/>
<path d="M16640 5080 l0 -80 160 0 160 0 0 80 0 80 -160 0 -160 0 0 -80z"/>
<path d="M14042 4673 c-7 -16 -20 -41 -29 -58 -9 -16 -23 -55 -31 -85 -26
-103 -26 -103 6 -122 37 -22 62 -23 106 -1 51 24 55 57 17 139 -17 37 -31 76
-31 88 0 29 -11 66 -19 66 -4 0 -12 -12 -19 -27z"/>
<path d="M16000 4665 c0 -11 7 -14 26 -11 19 4 27 0 34 -17 8 -21 9 -20 9 6 1
22 6 27 26 27 31 0 32 -8 3 -20 -22 -8 -22 -9 -2 -9 11 -1 25 4 32 11 16 16
16 -4 0 -21 -11 -11 -10 -13 2 -9 11 4 16 -3 17 -25 1 -16 -1 -37 -6 -45 -7
-12 -12 -10 -24 14 -9 16 -16 23 -17 16 0 -7 5 -22 11 -34 10 -19 9 -20 -23
-13 -18 4 -36 12 -40 18 -4 8 -9 6 -13 -5 -4 -9 -13 -14 -21 -11 -12 4 -14
-14 -14 -101 l0 -106 26 4 c19 4 27 0 34 -17 8 -21 9 -20 9 6 1 22 6 27 26 27
31 0 32 -8 3 -20 -22 -8 -22 -9 -2 -9 11 -1 25 4 32 11 16 16 16 -4 0 -21 -11
-11 -10 -13 2 -9 11 4 16 -3 17 -25 1 -16 -1 -37 -6 -45 -7 -12 -12 -10 -24
14 -9 16 -16 23 -17 16 0 -7 5 -22 11 -34 10 -19 9 -20 -23 -13 -18 4 -36 12
-40 18 -4 8 -9 6 -13 -5 -4 -9 -13 -14 -21 -11 -12 4 -14 -14 -14 -101 l0
-106 26 4 c19 4 27 0 34 -17 8 -21 9 -20 9 6 1 22 6 27 26 27 31 0 32 -8 3
-20 -22 -8 -22 -9 -2 -9 11 -1 25 4 32 11 16 16 16 -4 0 -21 -11 -11 -10 -13
2 -9 11 4 16 -3 17 -25 1 -16 -1 -37 -6 -45 -7 -12 -12 -10 -24 14 -9 16 -16
23 -17 16 0 -7 5 -22 11 -34 10 -19 9 -20 -23 -13 -18 4 -36 12 -40 18 -4 8
-9 6 -13 -5 -4 -9 -13 -14 -21 -11 -11 4 -14 -11 -14 -86 l0 -91 480 0 480 0
0 83 c-1 56 -5 88 -15 101 -13 17 -19 16 -17 -5 0 -3 -15 -6 -34 -7 -25 -2
-34 1 -34 13 0 9 -4 14 -9 11 -4 -3 -6 6 -3 19 2 15 0 25 -7 25 -6 0 -11 -9
-11 -19 0 -11 -4 -23 -10 -26 -6 -4 -9 15 -9 50 l2 57 36 -7 c26 -4 32 -3 21
4 -13 9 -13 11 2 11 9 0 20 -5 23 -10 4 -6 15 -8 26 -5 13 5 19 2 19 -10 0 -9
5 -13 10 -10 17 10 12 207 -5 229 -13 17 -19 16 -17 -5 0 -3 -15 -6 -34 -7
-25 -2 -34 1 -34 13 0 9 -4 14 -9 11 -4 -3 -6 6 -3 19 2 15 0 25 -7 25 -6 0
-11 -9 -11 -19 0 -11 -4 -23 -10 -26 -6 -4 -9 15 -9 50 l2 57 36 -7 c26 -4 32
-3 21 4 -13 9 -13 11 2 11 9 0 20 -5 23 -10 4 -6 15 -8 26 -5 13 5 19 2 19
-10 0 -9 5 -13 10 -10 17 10 12 207 -5 229 -13 17 -19 16 -17 -5 0 -3 -15 -6
-34 -7 -25 -2 -34 1 -34 13 0 9 -4 14 -9 11 -4 -3 -6 6 -3 19 2 15 0 25 -7 25
-6 0 -11 -9 -11 -19 0 -11 -4 -23 -10 -26 -6 -4 -9 15 -9 50 l2 57 36 -7 c26
-4 32 -3 21 4 -13 9 -13 11 2 11 9 0 20 -5 23 -10 4 -6 15 -8 26 -5 13 5 19 2
19 -10 0 -9 5 -13 10 -10 6 3 10 15 10 26 0 19 -12 19 -480 19 -423 0 -480 -2
-480 -15z m255 -5 c4 -6 15 -8 26 -5 14 5 19 2 19 -11 0 -13 3 -14 14 -5 27
22 56 21 66 -2 8 -21 9 -21 9 6 1 22 6 27 26 27 31 0 32 -8 3 -20 -22 -8 -22
-9 -2 -9 11 -1 25 4 32 11 16 16 16 -4 0 -21 -11 -11 -10 -13 2 -9 11 4 16 -3
17 -25 1 -16 -1 -37 -6 -45 -7 -12 -12 -10 -24 14 -9 16 -16 23 -17 16 0 -7 5
-22 11 -34 10 -19 9 -20 -23 -13 -18 4 -36 12 -40 18 -5 8 -9 6 -13 -4 -7 -19
-43 -18 -56 2 -7 12 -13 7 -11 -12 0 -3 -15 -6 -34 -7 -25 -2 -34 1 -34 13 0
9 -4 14 -9 11 -4 -3 -6 6 -3 19 2 15 0 25 -7 25 -6 0 -11 -9 -11 -19 0 -11 -4
-23 -10 -26 -6 -4 -9 15 -9 50 l2 57 36 -7 c26 -4 32 -3 21 4 -13 9 -13 11 2
11 9 0 20 -5 23 -10z m320 0 c4 -6 15 -8 26 -5 14 5 19 2 19 -11 0 -13 3 -14
14 -5 27 22 56 21 66 -2 8 -21 9 -21 9 6 1 22 6 27 26 27 31 0 32 -8 3 -20
-22 -8 -22 -9 -2 -9 11 -1 25 4 32 11 16 16 16 -4 0 -21 -11 -11 -10 -13 2 -9
11 4 16 -3 17 -25 1 -16 -1 -37 -6 -45 -7 -12 -12 -10 -24 14 -9 16 -16 23
-17 16 0 -7 5 -22 11 -34 10 -19 9 -20 -23 -13 -18 4 -36 12 -40 18 -5 8 -9 6
-13 -4 -7 -19 -43 -18 -56 2 -7 12 -13 7 -11 -12 0 -3 -15 -6 -34 -7 -25 -2
-34 1 -34 13 0 9 -4 14 -9 11 -4 -3 -6 6 -3 19 2 15 0 25 -7 25 -6 0 -11 -9
-11 -19 0 -11 -4 -23 -10 -26 -6 -4 -9 15 -9 50 l2 57 36 -7 c26 -4 32 -3 21
4 -13 9 -13 11 2 11 9 0 20 -5 23 -10z m-379 -165 c5 -13 8 -13 21 0 18 19 33
11 34 -18 0 -15 2 -17 6 -7 15 36 58 56 51 23 -2 -10 -10 -17 -18 -15 -9 2 -9
-4 4 -22 23 -36 12 -79 -18 -70 -11 3 -29 16 -38 28 -17 21 -18 21 -19 1 -1
-11 -2 -26 -2 -32 1 -22 -33 -14 -45 10 -8 17 -11 18 -11 5 -1 -20 -14 -23
-42 -8 -11 6 -19 7 -19 1 0 -12 -47 -23 -71 -16 -15 5 -17 10 -8 26 5 11 15
17 21 13 6 -4 9 -1 6 7 -3 8 -12 13 -22 11 -12 -2 -16 5 -16 33 0 43 9 44 49
3 17 -17 31 -27 31 -22 0 6 -6 16 -12 23 -11 11 -6 12 27 7 39 -6 39 -6 15 8
l-25 14 40 5 c22 2 44 4 48 5 4 1 10 -5 13 -13z m320 0 c5 -13 8 -13 21 0 18
19 33 11 34 -18 0 -15 2 -17 6 -7 15 36 58 56 51 23 -2 -10 -10 -17 -18 -15
-9 2 -9 -4 4 -22 23 -36 12 -79 -18 -70 -11 3 -29 16 -38 28 -17 21 -18 21
-19 1 -1 -11 -2 -26 -2 -32 1 -22 -33 -14 -45 10 -8 17 -11 18 -11 5 -1 -20
-14 -23 -42 -8 -11 6 -19 7 -19 1 0 -12 -47 -23 -71 -16 -15 5 -17 10 -8 26 5
11 15 17 21 13 6 -4 9 -1 6 7 -3 8 -12 13 -22 11 -12 -2 -16 5 -16 33 0 43 9
44 49 3 17 -17 31 -27 31 -22 0 6 -6 16 -12 23 -11 11 -6 12 27 7 39 -6 39 -6
15 8 l-25 14 40 5 c22 2 44 4 48 5 4 1 10 -5 13 -13z m320 0 c5 -13 8 -13 21
0 18 19 33 11 34 -18 0 -15 2 -17 6 -7 15 36 58 56 51 23 -2 -10 -10 -17 -18
-15 -9 2 -9 -4 4 -22 23 -36 12 -79 -18 -70 -11 3 -29 16 -38 28 -17 21 -18
21 -19 1 -1 -11 -2 -26 -2 -32 1 -22 -33 -14 -45 10 -8 17 -11 18 -11 5 -1
-20 -14 -23 -42 -8 -11 6 -19 7 -19 1 0 -12 -47 -23 -71 -16 -15 5 -17 10 -8
26 5 11 15 17 21 13 6 -4 9 -1 6 7 -3 8 -12 13 -22 11 -12 -2 -16 5 -16 33 0
43 9 44 49 3 17 -17 31 -27 31 -22 0 6 -6 16 -12 23 -11 11 -6 12 27 7 39 -6
39 -6 15 8 l-25 14 40 5 c22 2 44 4 48 5 4 1 10 -5 13 -13z m-196 -155 c0 -22
20 -26 38 -8 9 9 14 6 21 -13 l10 -24 0 28 c1 22 6 27 26 27 31 0 32 -8 3 -20
-22 -8 -22 -9 -2 -9 11 -1 25 4 32 11 16 16 16 -4 0 -21 -11 -11 -10 -13 2 -9
11 4 16 -3 17 -25 1 -16 -1 -37 -6 -45 -7 -12 -12 -10 -24 14 -9 16 -16 23
-17 16 0 -7 5 -22 11 -34 10 -19 9 -20 -23 -13 -18 4 -36 12 -39 17 -4 6 -11
2 -18 -8 -6 -11 -11 -13 -11 -6 0 6 -4 12 -10 12 -6 0 -10 -38 -10 -95 l0 -95
-170 0 c-104 0 -170 4 -170 10 0 5 -11 12 -25 16 -14 3 -31 16 -37 27 l-11 21
-9 -23 c-4 -12 -6 -27 -2 -32 3 -5 -3 -9 -14 -9 -10 0 -24 10 -30 23 -8 17
-11 18 -11 5 -1 -20 -14 -23 -42 -8 -11 6 -19 7 -19 1 0 -12 -47 -23 -71 -16
-15 5 -17 10 -8 26 5 11 15 17 21 13 6 -4 9 -1 6 7 -3 8 -12 13 -22 11 -12 -2
-16 5 -16 33 0 43 9 44 49 3 17 -17 31 -27 31 -22 0 6 -6 16 -12 23 -11 11 -6
12 27 7 38 -6 39 -6 16 8 -24 13 -24 14 20 18 28 3 48 1 54 -7 8 -10 13 -9 23
2 17 17 32 8 33 -20 0 -15 2 -17 6 -7 4 8 14 22 25 31 19 17 25 69 8 69 -5 0
-15 -9 -22 -20 -15 -24 -48 -27 -48 -4 0 8 -4 13 -9 10 -4 -3 -6 6 -3 19 2 15
0 25 -7 25 -6 0 -11 -9 -11 -19 0 -11 -4 -23 -10 -26 -6 -4 -9 15 -9 50 l2 57
36 -7 c26 -4 32 -3 21 4 -11 8 -12 11 -2 11 8 0 26 -9 40 -21 l27 -21 3 26 3
26 170 0 c162 0 169 -1 169 -20z m196 -165 c5 -13 8 -13 21 0 18 19 33 11 34
-18 0 -15 2 -17 6 -7 15 36 58 56 51 23 -2 -10 -10 -17 -18 -15 -9 2 -9 -4 4
-22 23 -36 12 -79 -18 -70 -11 3 -29 16 -38 28 -17 21 -18 21 -19 1 -1 -11 -2
-26 -2 -32 1 -22 -33 -14 -45 10 -8 17 -11 18 -11 5 -1 -20 -14 -23 -42 -8
-11 6 -19 7 -19 1 0 -12 -47 -23 -71 -16 -15 5 -17 10 -8 26 5 11 15 17 21 13
6 -4 9 -1 6 7 -3 8 -12 13 -22 11 -12 -2 -16 5 -16 33 0 43 9 44 49 3 17 -17
31 -27 31 -22 0 6 -6 16 -12 23 -11 11 -6 12 27 7 39 -6 39 -6 15 8 l-25 14
40 5 c22 2 44 4 48 5 4 1 10 -5 13 -13z m-581 -155 c4 -6 15 -8 26 -5 14 5 19
2 19 -11 0 -13 3 -14 14 -5 27 22 56 21 66 -2 8 -21 9 -21 9 6 1 22 6 27 26
27 31 0 32 -8 3 -20 -22 -8 -22 -9 -2 -9 11 -1 25 4 32 11 16 16 16 -4 0 -21
-11 -11 -10 -13 2 -9 11 4 16 -3 17 -25 1 -16 -1 -37 -6 -45 -7 -12 -12 -10
-24 14 -9 16 -16 23 -17 16 0 -7 5 -22 11 -34 10 -19 9 -20 -23 -13 -18 4 -36
12 -40 18 -5 8 -9 6 -13 -4 -7 -19 -43 -18 -56 2 -7 12 -13 7 -11 -12 0 -3
-15 -6 -34 -7 -25 -2 -34 1 -34 13 0 9 -4 14 -9 11 -4 -3 -6 6 -3 19 2 15 0
25 -7 25 -6 0 -11 -9 -11 -19 0 -11 -4 -23 -10 -26 -6 -4 -9 15 -9 50 l2 57
36 -7 c26 -4 32 -3 21 4 -13 9 -13 11 2 11 9 0 20 -5 23 -10z m320 0 c4 -6 15
-8 26 -5 14 5 19 2 19 -11 0 -13 3 -14 14 -5 27 22 56 21 66 -2 8 -21 9 -21 9
6 1 22 6 27 26 27 31 0 32 -8 3 -20 -22 -8 -22 -9 -2 -9 11 -1 25 4 32 11 16
16 16 -4 0 -21 -11 -11 -10 -13 2 -9 11 4 16 -3 17 -25 1 -16 -1 -37 -6 -45
-7 -12 -12 -10 -24 14 -9 16 -16 23 -17 16 0 -7 5 -22 11 -34 10 -19 9 -20
-23 -13 -18 4 -36 12 -40 18 -5 8 -9 6 -13 -4 -7 -19 -43 -18 -56 2 -7 12 -13
7 -11 -12 0 -3 -15 -6 -34 -7 -25 -2 -34 1 -34 13 0 9 -4 14 -9 11 -4 -3 -6 6
-3 19 2 15 0 25 -7 25 -6 0 -11 -9 -11 -19 0 -11 -4 -23 -10 -26 -6 -4 -9 15
-9 50 l2 57 36 -7 c26 -4 32 -3 21 4 -13 9 -13 11 2 11 9 0 20 -5 23 -10z
m-379 -165 c5 -13 8 -13 21 0 18 19 33 11 34 -18 0 -15 2 -17 6 -7 15 36 58
56 51 23 -2 -10 -10 -17 -18 -15 -9 2 -9 -4 4 -22 23 -36 12 -79 -18 -70 -11
3 -29 16 -38 28 -17 21 -18 21 -19 1 -1 -11 -2 -26 -2 -32 1 -22 -33 -14 -45
10 -8 17 -11 18 -11 5 -1 -20 -14 -23 -42 -8 -11 6 -19 7 -19 1 0 -12 -47 -23
-71 -16 -15 5 -17 10 -8 26 5 11 15 17 21 13 6 -4 9 -1 6 7 -3 8 -12 13 -22
11 -12 -2 -16 5 -16 33 0 43 9 44 49 3 17 -17 31 -27 31 -22 0 6 -6 16 -12 23
-11 11 -6 12 27 7 39 -6 39 -6 15 8 l-25 14 40 5 c22 2 44 4 48 5 4 1 10 -5
13 -13z m320 0 c5 -13 8 -13 21 0 18 19 33 11 34 -18 0 -15 2 -17 6 -7 15 36
58 56 51 23 -2 -10 -10 -17 -18 -15 -9 2 -9 -4 4 -22 23 -36 12 -79 -18 -70
-11 3 -29 16 -38 28 -17 21 -18 21 -19 1 -1 -11 -2 -26 -2 -32 1 -22 -33 -14
-45 10 -8 17 -11 18 -11 5 -1 -20 -14 -23 -42 -8 -11 6 -19 7 -19 1 0 -12 -47
-23 -71 -16 -15 5 -17 10 -8 26 5 11 15 17 21 13 6 -4 9 -1 6 7 -3 8 -12 13
-22 11 -12 -2 -16 5 -16 33 0 43 9 44 49 3 17 -17 31 -27 31 -22 0 6 -6 16
-12 23 -11 11 -6 12 27 7 39 -6 39 -6 15 8 l-25 14 40 5 c22 2 44 4 48 5 4 1
10 -5 13 -13z m320 0 c5 -13 8 -13 21 0 18 19 33 11 34 -18 0 -15 2 -17 6 -7
15 36 58 56 51 23 -2 -10 -10 -17 -18 -15 -9 2 -9 -4 4 -22 23 -36 12 -79 -18
-70 -11 3 -29 16 -38 28 -17 21 -18 21 -19 1 -1 -11 -2 -26 -2 -32 1 -22 -33
-14 -45 10 -8 17 -11 18 -11 5 -1 -20 -14 -23 -42 -8 -11 6 -19 7 -19 1 0 -12
-47 -23 -71 -16 -15 5 -17 10 -8 26 5 11 15 17 21 13 6 -4 9 -1 6 7 -3 8 -12
13 -22 11 -12 -2 -16 5 -16 33 0 43 9 44 49 3 17 -17 31 -27 31 -22 0 6 -6 16
-12 23 -11 11 -6 12 27 7 39 -6 39 -6 15 8 l-25 14 40 5 c22 2 44 4 48 5 4 1
10 -5 13 -13z"/>
<path d="M16286 4147 c3 -10 9 -15 12 -12 3 3 0 11 -7 18 -10 9 -11 8 -5 -6z"/>
<path d="M18185 4655 c-25 -24 -25 -26 -25 -215 0 -259 -21 -240 265 -240 137
0 215 4 215 10 0 6 -76 10 -209 10 -258 0 -253 -2 -249 110 l3 75 228 3 227 2
0 135 0 135 -215 0 c-216 0 -216 0 -240 -25z m190 -95 l0 -95 -95 0 -95 0 -3
80 c-4 106 8 117 117 113 l76 -3 0 -95z m240 0 l0 -95 -95 0 -95 0 -3 84 c-2
46 0 90 2 98 4 11 27 13 98 11 l93 -3 0 -95z"/>
<path d="M18710 4545 l0 -134 108 -3 107 -3 0 -90 0 -90 -107 -3 c-61 -1 -108
-7 -108 -12 0 -6 92 -10 240 -10 148 0 240 4 240 10 0 5 -47 11 -107 12 l-108
3 0 90 0 90 108 3 107 3 0 134 0 135 -240 0 -240 0 0 -135z m455 15 l0 -95
-215 0 -215 0 -3 84 c-2 46 -1 90 2 98 5 11 47 13 218 11 l213 -3 0 -95z"/>
<path d="M19280 4545 l0 -135 228 -2 227 -3 3 -75 c4 -112 9 -110 -249 -110
-133 0 -209 -4 -209 -10 0 -6 78 -10 215 -10 286 0 265 -19 265 240 0 259 21
240 -265 240 l-215 0 0 -135z m215 15 l0 -95 -95 0 -95 0 -3 84 c-2 46 0 90 2
98 4 11 27 13 98 11 l93 -3 0 -95z m224 83 c20 -16 22 -26 19 -98 l-3 -80 -95
0 -95 0 -3 84 c-2 46 -1 90 2 98 8 21 148 18 175 -4z"/>
<path d="M20015 4655 c-25 -24 -25 -26 -25 -215 0 -257 -17 -240 240 -240 257
0 240 -17 240 240 0 257 17 240 -240 240 -189 0 -191 0 -215 -25z m190 -95 l0
-95 -95 0 -95 0 -3 80 c-4 106 8 117 117 113 l76 -3 0 -95z m224 83 c20 -16
22 -26 19 -98 l-3 -80 -95 0 -95 0 -3 84 c-2 46 -1 90 2 98 8 21 148 18 175
-4z m19 -313 c4 -110 5 -110 -217 -110 -221 0 -221 0 -221 104 0 40 3 76 7 80
4 3 102 5 217 4 l211 -3 3 -75z"/>
<path d="M20595 4655 c-25 -24 -25 -26 -25 -215 0 -257 -17 -240 240 -240 257
0 240 -17 240 240 0 257 17 240 -240 240 -189 0 -191 0 -215 -25z m414 -12
c20 -16 22 -26 19 -98 l-3 -80 -215 0 -215 0 -3 80 c-4 116 -6 115 218 115
154 0 181 -2 199 -17z m-224 -328 l0 -90 -74 -3 c-107 -4 -121 7 -121 102 0
40 3 76 7 80 4 4 48 5 98 4 l90 -3 0 -90z m243 13 c3 -72 1 -78 -22 -93 -18
-12 -43 -15 -97 -13 l-74 3 -3 79 c-2 44 -1 85 2 93 4 11 27 13 98 11 l93 -3
3 -77z"/>
<path d="M21190 4465 c0 -286 -19 -265 240 -265 259 0 240 -21 240 265 l0 215
-240 0 -240 0 0 -215z m455 95 l0 -95 -215 0 -215 0 -3 84 c-2 46 -1 90 2 98
5 11 47 13 218 11 l213 -3 0 -95z m-240 -245 l0 -90 -74 -3 c-107 -4 -121 7
-121 102 0 40 3 76 7 80 4 4 48 5 98 4 l90 -3 0 -90z m243 13 c3 -72 1 -78
-22 -93 -18 -12 -43 -15 -97 -13 l-74 3 -3 79 c-2 44 -1 85 2 93 4 11 27 13
98 11 l93 -3 3 -77z"/>
<path d="M21775 4655 c-25 -24 -25 -24 -25 -240 l0 -215 240 0 240 0 0 215 c0
286 19 265 -240 265 -189 0 -191 0 -215 -25z m414 -12 c20 -16 22 -26 19 -98
l-3 -80 -215 0 -215 0 -3 80 c-4 116 -6 115 218 115 154 0 181 -2 199 -17z
m-224 -328 l0 -90 -95 0 -95 0 -3 79 c-2 44 -1 85 2 93 4 11 27 13 98 11 l93
-3 0 -90z m240 0 l0 -90 -95 0 -95 0 -3 79 c-2 44 -1 85 2 93 4 11 27 13 98
11 l93 -3 0 -90z"/>
<path d="M22390 4440 l0 -240 240 0 240 0 0 240 0 240 -240 0 -240 0 0 -240z
m455 120 l0 -95 -215 0 -215 0 -3 84 c-2 46 -1 90 2 98 5 11 47 13 218 11
l213 -3 0 -95z m-240 -245 l0 -90 -95 0 -95 0 -3 79 c-2 44 -1 85 2 93 4 11
27 13 98 11 l93 -3 0 -90z m240 0 l0 -90 -95 0 -95 0 -3 79 c-2 44 -1 85 2 93
4 11 27 13 98 11 l93 -3 0 -90z"/>
<path d="M14251 4017 c-5 -13 -8 -85 -8 -160 l2 -137 800 0 800 0 -2 58 c-2
31 -3 93 -4 136 0 44 -5 90 -10 103 l-9 23 -780 0 -780 0 -9 -23z"/>
</g>
</svg>
